STARTFONT 2.1
FONT -Adobe-Palatino-Medium-I-Normal--33-240-100-100-P-171-ISO8859-1
SIZE 24 100 100
FONTBOUNDINGBOX 38 34 -5 -9

STARTPROPERTIES 26
_DEC_DEVICE_FONTNAMES "PS=Palatino-Italic"
FONTNAME_REGISTRY ""
FAMILY_NAME "Palatino"
FOUNDRY "Adobe"
WEIGHT_NAME "Medium"
SLANT "I"
SETWIDTH_NAME "Normal"
ADD_STYLE_NAME ""
PIXEL_SIZE 33
POINT_SIZE 240
RESOLUTION_X 100
RESOLUTION_Y 100
SPACING "P"
AVERAGE_WIDTH 171
CHARSET_REGISTRY "ISO8859"
CHARSET_ENCODING "1"
CHARSET_COLLECTIONS "ASCII ISO8859-1 ADOBE-STANDARD"
FULL_NAME "Palatino Italic"
COPYRIGHT "Copyright (c) 1991 Adobe Systems, Inc."
CAP_HEIGHT 23
X_HEIGHT 16
WEIGHT 10
QUAD_WIDTH 19
DEFAULT_CHAR 0
FONT_DESCENT 9
FONT_ASCENT 25
ENDPROPERTIES

CHARS 190

STARTCHAR space
ENCODING 32
SWIDTH 250 0
DWIDTH 8 0
BBX 1 1 0 0
BITMAP
00
ENDCHAR

STARTCHAR exclam
ENCODING 33
SWIDTH 333 0
DWIDTH 11 0
BBX 8 23 2 0
BITMAP
07
07
07
07
0E
0E
0C
0C
0C
1C
18
18
18
18
30
30
30
00
00
40
E0
E0
40
ENDCHAR

STARTCHAR quotedbl
ENCODING 34
SWIDTH 500 0
DWIDTH 16 0
BBX 10 8 4 15
BITMAP
30C0
71C0
71C0
6180
6180
C300
C300
8200
ENDCHAR

STARTCHAR numbersign
ENCODING 35
SWIDTH 500 0
DWIDTH 17 0
BBX 16 23 0 0
BITMAP
030C
060C
060C
061C
0618
0618
0618
7FFF
7FFF
0C18
0C38
0C30
0C30
FFFE
FFFE
1830
1830
1860
1860
1860
1860
3060
3060
ENDCHAR

STARTCHAR dollar
ENCODING 36
SWIDTH 500 0
DWIDTH 16 0
BBX 14 28 1 -4
BITMAP
00C0
00C0
03FC
06BC
0C8C
1888
3088
3180
3180
3100
3900
3F00
1FE0
07F0
0378
0238
0218
0218
4218
C238
C230
C660
F5C0
FF80
0400
0400
0400
0C00
ENDCHAR

STARTCHAR percent
ENCODING 37
SWIDTH 889 0
DWIDTH 29 0
BBX 22 23 3 0
BITMAP
0F00C0
3B8180
70FF80
608100
E08300
E08200
C18600
C18C00
C10800
C31800
661000
3C3020
0020F8
00618C
004384
00C704
018704
010604
03060C
020608
060618
040330
0C01E0
ENDCHAR

STARTCHAR ampersand
ENCODING 38
SWIDTH 778 0
DWIDTH 26 0
BBX 24 23 1 0
BITMAP
001F00
00FF00
018300
030300
070200
060002
060003
070001
078001
03F003
03E00E
0E03FE
380FE0
700CE0
601870
E01030
E00030
E00060
F00060
7801C0
7E0380
1FFE00
07E000
ENDCHAR

STARTCHAR quoteright
ENCODING 39
SWIDTH 278 0
DWIDTH 9 0
BBX 6 8 2 15
BITMAP
1C
1C
18
38
30
70
60
C0
ENDCHAR

STARTCHAR parenleft
ENCODING 40
SWIDTH 333 0
DWIDTH 11 0
BBX 9 27 2 -3
BITMAP
0180
0300
0700
0E00
0C00
1800
3800
3000
7000
6000
E000
E000
E000
E000
C000
C000
C000
C000
C000
C000
6000
6000
6000
2000
3000
1000
1800
ENDCHAR

STARTCHAR parenright
ENCODING 41
SWIDTH 333 0
DWIDTH 11 0
BBX 9 27 0 -3
BITMAP
0C00
0400
0600
0600
0300
0300
0300
0180
0180
0180
0180
0180
0180
0380
0380
0380
0380
0300
0700
0600
0E00
0C00
1800
3000
7000
E000
C000
ENDCHAR

STARTCHAR asterisk
ENCODING 42
SWIDTH 389 0
DWIDTH 13 0
BBX 11 11 2 12
BITMAP
0300
4700
E600
F600
3C60
0FE0
3C20
F600
E600
4700
0700
ENDCHAR

STARTCHAR plus
ENCODING 43
SWIDTH 606 0
DWIDTH 20 0
BBX 16 16 2 0
BITMAP
0180
0180
0180
0180
0180
0180
0180
FFFF
FFFF
0180
0180
0180
0180
0180
0180
0180
ENDCHAR

STARTCHAR comma
ENCODING 44
SWIDTH 250 0
DWIDTH 8 0
BBX 6 8 -1 -4
BITMAP
1C
1C
18
38
30
70
60
C0
ENDCHAR

STARTCHAR minus
ENCODING 45
SWIDTH 606 0
DWIDTH 20 0
BBX 17 2 2 7
BITMAP
FFFF80
FFFF80
ENDCHAR

STARTCHAR period
ENCODING 46
SWIDTH 250 0
DWIDTH 8 0
BBX 3 4 1 0
BITMAP
40
E0
E0
40
ENDCHAR

STARTCHAR slash
ENCODING 47
SWIDTH 296 0
DWIDTH 10 0
BBX 10 30 0 -6
BITMAP
00C0
00C0
0080
0180
0180
0180
0300
0300
0300
0200
0600
0600
0600
0400
0C00
0C00
0C00
1800
1800
1800
1000
3000
3000
3000
2000
6000
6000
6000
C000
C000
ENDCHAR

STARTCHAR zero
ENCODING 48
SWIDTH 500 0
DWIDTH 16 0
BBX 15 23 1 0
BITMAP
03E0
0738
0C1C
1C0C
180C
380E
300E
700E
700E
700E
600E
E00C
E00C
E01C
E01C
E018
E018
E038
6030
6070
7060
39C0
1F80
ENDCHAR

STARTCHAR one
ENCODING 49
SWIDTH 500 0
DWIDTH 16 0
BBX 11 23 2 0
BITMAP
00C0
03C0
3FC0
71C0
41C0
0180
0380
0380
0380
0380
0380
0300
0700
0700
0700
0700
0700
0600
0E00
0E00
0E00
1F00
FFE0
ENDCHAR

STARTCHAR two
ENCODING 50
SWIDTH 500 0
DWIDTH 16 0
BBX 14 23 0 0
BITMAP
07E0
0FF8
1C78
103C
301C
201C
001C
001C
0038
0038
0030
0060
00E0
00C0
0180
0300
0600
0C00
1800
3000
2004
7FFC
FFF8
ENDCHAR

STARTCHAR three
ENCODING 51
SWIDTH 500 0
DWIDTH 16 0
BBX 14 23 0 0
BITMAP
03E0
07F8
0C38
181C
001C
0018
0018
0030
00E0
0FC0
0FF0
0038
003C
001C
001C
001C
001C
4018
4038
4030
E070
F1C0
3F00
ENDCHAR

STARTCHAR four
ENCODING 52
SWIDTH 500 0
DWIDTH 16 0
BBX 15 23 0 0
BITMAP
001C
003C
0078
0078
00F8
01B8
0338
0330
0630
0C30
0870
1870
3070
6060
6060
FFFE
FFFE
00E0
00C0
00C0
01C0
01E0
1FFC
ENDCHAR

STARTCHAR five
ENCODING 53
SWIDTH 500 0
DWIDTH 16 0
BBX 15 23 0 0
BITMAP
07FE
0FFE
0C00
0C00
0800
0800
0800
1800
1800
17E0
1CF8
1838
101C
001C
001C
001C
001C
4018
4038
4030
E060
F1C0
3F00
ENDCHAR

STARTCHAR six
ENCODING 54
SWIDTH 500 0
DWIDTH 16 0
BBX 14 23 1 0
BITMAP
003C
00FC
0380
0600
0C00
0C00
1800
3800
3000
71E0
7FF0
7C78
7838
F018
E018
E018
E018
E038
E030
6060
70C0
3F80
0E00
ENDCHAR

STARTCHAR seven
ENCODING 55
SWIDTH 500 0
DWIDTH 16 0
BBX 15 23 1 0
BITMAP
3FFE
7FFE
7FFE
000C
0008
0018
0030
0020
0060
0040
00C0
0180
0180
0300
0600
0600
0C00
1C00
1800
3800
3000
7000
E000
ENDCHAR

STARTCHAR eight
ENCODING 56
SWIDTH 500 0
DWIDTH 16 0
BBX 14 23 1 0
BITMAP
01F0
0738
0C1C
080C
180C
180C
381C
1818
1C30
1EE0
0FC0
07E0
1CF0
3870
7038
6038
E038
C030
C030
E070
E060
71C0
3F00
ENDCHAR

STARTCHAR nine
ENCODING 57
SWIDTH 500 0
DWIDTH 16 0
BBX 14 23 1 0
BITMAP
03E0
06F0
1C38
1818
301C
301C
701C
701C
701C
703C
787C
3CF8
1FD8
0F38
0038
0030
0070
0060
00C0
80C0
C380
7E00
3800
ENDCHAR

STARTCHAR colon
ENCODING 58
SWIDTH 250 0
DWIDTH 8 0
BBX 5 15 1 0
BITMAP
10
38
38
10
00
00
00
00
00
00
00
40
E0
E0
40
ENDCHAR

STARTCHAR semicolon
ENCODING 59
SWIDTH 250 0
DWIDTH 8 0
BBX 7 19 -1 -4
BITMAP
04
0E
0E
04
00
00
00
00
00
00
00
1C
1C
18
38
30
70
60
C0
ENDCHAR

STARTCHAR less
ENCODING 60
SWIDTH 606 0
DWIDTH 20 0
BBX 17 16 2 1
BITMAP
000380
000F80
003E00
00F800
03E000
0F0000
3C0000
F00000
E00000
780000
1F0000
07C000
01F000
007C00
000F00
000380
ENDCHAR

STARTCHAR equal
ENCODING 61
SWIDTH 606 0
DWIDTH 20 0
BBX 17 9 2 4
BITMAP
FFFF80
FFFF80
000000
000000
000000
000000
000000
FFFF80
FFFF80
ENDCHAR

STARTCHAR greater
ENCODING 62
SWIDTH 606 0
DWIDTH 20 0
BBX 17 16 1 1
BITMAP
E00000
F80000
3E0000
0F8000
03E000
007800
001E00
000780
000380
000F00
007C00
01F000
07C000
1F0000
780000
E00000
ENDCHAR

STARTCHAR question
ENCODING 63
SWIDTH 500 0
DWIDTH 16 0
BBX 10 23 4 0
BITMAP
3E00
7F80
C3C0
C1C0
01C0
01C0
0180
0380
0700
0E00
1C00
3800
3000
6000
6000
3000
0000
0000
0000
4000
E000
E000
4000
ENDCHAR

STARTCHAR at
ENCODING 64
SWIDTH 747 0
DWIDTH 25 0
BBX 23 23 1 0
BITMAP
01FF00
07C7C0
0E00F0
180038
30001C
60000C
607D86
C1CF86
C38782
C70782
870706
860706
8E0706
CE060C
CE0E0C
C61E38
677670
61E7C4
30000C
180038
0E0070
07C3C0
01FF00
ENDCHAR

STARTCHAR A
ENCODING 65
SWIDTH 722 0
DWIDTH 24 0
BBX 23 23 -1 0
BITMAP
0001C0
0001C0
0003C0
0003C0
0006C0
000CC0
000CC0
0018E0
0030E0
0030E0
0060E0
0060E0
00C060
01FFE0
018070
030070
030070
060070
0C0070
1C0030
180030
780078
FE01FE
ENDCHAR

STARTCHAR B
ENCODING 66
SWIDTH 611 0
DWIDTH 20 0
BBX 19 23 0 0
BITMAP
1FFF80
0783C0
0381E0
0380E0
0380E0
0700E0
0700E0
0701C0
070180
070300
071E00
0FFC00
0E0F80
0E03C0
0E01C0
0E01C0
1E01C0
1C01C0
1C0380
1C0380
1C0700
3C1C00
FFF000
ENDCHAR

STARTCHAR C
ENCODING 67
SWIDTH 667 0
DWIDTH 22 0
BBX 21 23 0 0
BITMAP
001FC0
00FFF8
038078
060018
1C0010
180010
380000
700000
700000
700000
E00000
E00000
E00000
E00000
E00000
E00000
F00000
700000
780000
3C0070
1F01E0
0FFF80
01F800
ENDCHAR

STARTCHAR D
ENCODING 68
SWIDTH 778 0
DWIDTH 25 0
BBX 25 23 -1 0
BITMAP
1FFFF000
0780FC00
03801E00
03800F00
03800700
03800780
03800380
07000380
07000380
07000380
07000380
07000380
07000780
0E000700
0E000700
0E000E00
0E000C00
0E001C00
0E003800
1C007000
1C01C000
3FFF8000
FFF80000
ENDCHAR

STARTCHAR E
ENCODING 69
SWIDTH 611 0
DWIDTH 19 0
BBX 19 23 0 0
BITMAP
1FFFE0
0780E0
038040
038040
038040
070000
070000
070000
070000
070000
070300
0FFF00
0E0000
0E0000
0E0000
0E0000
1C0000
1C0000
1C0080
1C0080
1C0080
3C0380
FFFF80
ENDCHAR

STARTCHAR F
ENCODING 70
SWIDTH 556 0
DWIDTH 18 0
BBX 18 23 0 0
BITMAP
1FFFC0
0781C0
038040
038040
038040
070000
070000
070000
070000
070000
070000
0E0700
0FFF00
0E0000
0E0000
0E0000
1C0000
1C0000
1C0000
1C0000
1C0000
3C0000
FF8000
ENDCHAR

STARTCHAR G
ENCODING 71
SWIDTH 722 0
DWIDTH 21 0
BBX 21 23 0 0
BITMAP
003F80
01FFF0
0380F0
0E0030
1C0020
180020
380000
700000
700000
600000
E00000
E00000
E00000
E00000
E007F8
E000E0
E000E0
F000E0
7000C0
7801C0
3C01C0
1FC7C0
07FE00
ENDCHAR

STARTCHAR H
ENCODING 72
SWIDTH 778 0
DWIDTH 27 0
BBX 26 23 0 0
BITMAP
1FF07FC0
07C01F00
03800E00
03800E00
07000E00
07000E00
07000E00
07000E00
07001C00
0E001C00
0FFFFC00
0E001C00
0E001C00
0E001800
0E003800
1C003800
1C003800
1C003800
1C003800
1C003000
1C007000
3E00F800
FF83FE00
ENDCHAR

STARTCHAR I
ENCODING 73
SWIDTH 333 0
DWIDTH 13 0
BBX 12 23 0 0
BITMAP
1FF0
07C0
0380
0380
0380
0700
0700
0700
0700
0700
0E00
0E00
0E00
0E00
0E00
0E00
1C00
1C00
1C00
1C00
1C00
3E00
FF80
ENDCHAR

STARTCHAR J
ENCODING 74
SWIDTH 333 0
DWIDTH 11 0
BBX 13 30 -1 -7
BITMAP
0FF8
03E0
01C0
01C0
01C0
0180
0380
0380
0380
0380
0380
0380
0700
0700
0700
0700
0700
0700
0600
0E00
0E00
0E00
0E00
0E00
0C00
1C00
1C00
1800
3000
E000
ENDCHAR

STARTCHAR K
ENCODING 75
SWIDTH 667 0
DWIDTH 22 0
BBX 22 23 0 0
BITMAP
1FF03C
07C070
0380E0
0381C0
030380
030700
070E00
071C00
073800
076000
07C000
07E000
0FF000
0E7000
0E7800
0E3C00
0C1E00
1C0F00
1C0700
1C0780
1C03C0
3E01E0
FF80F8
ENDCHAR

STARTCHAR L
ENCODING 76
SWIDTH 556 0
DWIDTH 17 0
BBX 16 23 0 0
BITMAP
1FF0
07C0
0380
0380
0380
0700
0700
0700
0700
0700
0700
0E00
0E00
0E00
0E00
0E00
0E00
1C00
1C01
1C01
1C01
3C07
FFFF
ENDCHAR

STARTCHAR M
ENCODING 77
SWIDTH 944 0
DWIDTH 31 0
BBX 32 24 -1 -1
BITMAP
07E0001F
00E0003C
00F0003C
00F0007C
00F000FC
01B000DC
01B8019C
01B8019C
0138031C
0318071C
031C061C
031C0C1C
061C0C38
060E1838
060E1838
060E3038
0C067038
0C076038
0C07C038
1807C038
18038038
38038078
FE0301FE
00020000
ENDCHAR

STARTCHAR N
ENCODING 78
SWIDTH 778 0
DWIDTH 26 0
BBX 27 23 -1 0
BITMAP
1F801FE0
07800780
03C00300
03C00300
03E00300
03F00300
03700600
06380600
06380600
061C0600
061E0600
060E0600
0C070C00
0C070C00
0C038C00
0C03CC00
0C01CC00
0C01EC00
1800F800
18007800
18007800
3C003800
FF003800
ENDCHAR

STARTCHAR O
ENCODING 79
SWIDTH 778 0
DWIDTH 24 0
BBX 23 23 0 0
BITMAP
007FC0
01C3F0
070078
0E003C
1C001C
38001E
38000E
70000E
70000E
70000E
E0000E
E0000E
E0000E
E0001C
E0001C
E00018
E00038
F00030
700070
7800E0
3C01C0
1F8700
07FC00
ENDCHAR

STARTCHAR P
ENCODING 80
SWIDTH 611 0
DWIDTH 20 0
BBX 20 23 0 0
BITMAP
1FFF80
07C3E0
0380E0
0380F0
038070
038070
070070
070060
0700E0
0700C0
0701C0
064780
0E7E00
0E0000
0E0000
0E0000
0E0000
1C0000
1C0000
1C0000
1C0000
3E0000
FF8000
ENDCHAR

STARTCHAR Q
ENCODING 81
SWIDTH 778 0
DWIDTH 24 0
BBX 23 30 0 -7
BITMAP
007FC0
01C3F0
070078
0E003C
1C001C
38001E
38000E
70000E
70000E
70000E
E0000E
E0000E
E0000E
E0001C
E0001C
E00018
E00038
F00030
700060
7800E0
3C01C0
1F8F00
07FC00
070000
1FE000
18F80C
103E0C
300FC8
2007F8
0001F0
ENDCHAR

STARTCHAR R
ENCODING 82
SWIDTH 667 0
DWIDTH 22 0
BBX 22 23 0 0
BITMAP
0FFF80
03E3E0
01C0F0
01C070
038070
038070
038070
0380E0
0301C0
070380
077E00
077800
073C00
061C00
0E1E00
0E0F00
0E0780
0E0780
0E03C0
1C01E0
1C00E0
3E00F0
FF807C
ENDCHAR

STARTCHAR S
ENCODING 83
SWIDTH 556 0
DWIDTH 16 0
BBX 15 23 0 0
BITMAP
00FC
03FE
0E0E
1C02
1802
3802
3000
3000
3800
3C00
1FC0
0FF8
01FC
001E
000E
000E
000E
800C
801C
C018
E070
FFC0
3F00
ENDCHAR

STARTCHAR T
ENCODING 84
SWIDTH 611 0
DWIDTH 20 0
BBX 19 23 1 0
BITMAP
7FFFE0
7FFFE0
C0E060
C0E040
80E040
80C040
01C000
01C000
01C000
01C000
01C000
038000
038000
038000
038000
038000
038000
070000
070000
070000
070000
0F8000
3FE000
ENDCHAR

STARTCHAR U
ENCODING 85
SWIDTH 778 0
DWIDTH 26 0
BBX 24 23 1 0
BITMAP
FC01FF
3C007C
1C0038
1C0038
1C0038
380070
380070
380070
380070
380070
7000E0
7000E0
7000E0
7000E0
7000E0
E000C0
E001C0
E003C0
E007C0
E00FC0
701DC0
7FF3C0
1FC3F0
ENDCHAR

STARTCHAR V
ENCODING 86
SWIDTH 722 0
DWIDTH 25 0
BBX 24 23 1 0
BITMAP
FF00FF
3C003C
3C0038
1C0030
1C0060
1C0060
1C00C0
1C0180
1C0180
0E0300
0E0700
0E0600
0E0C00
0E1C00
0E1800
063000
073000
076000
07C000
07C000
078000
070000
030000
ENDCHAR

STARTCHAR W
ENCODING 87
SWIDTH 944 0
DWIDTH 31 0
BBX 30 23 1 0
BITMAP
FE0101FC
38030030
38038030
38078060
38078060
380D8060
380DC0C0
1C19C0C0
1C19C0C0
1C30C080
1C30E180
1C60E180
1C60E100
1CC07300
1CC07300
1D807200
1D807600
0F003E00
0F003C00
0E003C00
0E001C00
0C001800
0C001800
ENDCHAR

STARTCHAR X
ENCODING 88
SWIDTH 722 0
DWIDTH 25 0
BBX 24 23 0 0
BITMAP
3FE0FF
07801C
078038
038070
01C060
01C0C0
00E180
00E300
007600
007C00
003800
001C00
003C00
006E00
00CE00
018700
030780
070380
0E03C0
0C01C0
1800E0
3800F0
FF07FC
ENDCHAR

STARTCHAR Y
ENCODING 89
SWIDTH 667 0
DWIDTH 21 0
BBX 20 23 1 0
BITMAP
300000
F80030
FC00F0
1C01C0
0E0180
0E0300
070600
070C00
030800
031800
03B000
03B000
01E000
01E000
01C000
01C000
01C000
01C000
018000
038000
038000
038000
1FF000
ENDCHAR

STARTCHAR Z
ENCODING 90
SWIDTH 667 0
DWIDTH 21 0
BBX 20 23 0 0
BITMAP
1FFFF0
1C00E0
1801E0
1003C0
100380
000700
000F00
001E00
001C00
003800
007000
00F000
01E000
01C000
038000
078000
0F0000
0E0000
1C0020
3C0060
780040
7001C0
FFFFC0
ENDCHAR

STARTCHAR bracketleft
ENCODING 91
SWIDTH 333 0
DWIDTH 11 0
BBX 10 28 1 -4
BITMAP
0FC0
0E00
0E00
0C00
0C00
1C00
1C00
1C00
1C00
1800
1800
1800
3800
3800
3800
3000
3000
3000
7000
7000
7000
6000
6000
6000
E000
E000
FE00
8000
ENDCHAR

STARTCHAR backslash
ENCODING 92
SWIDTH 606 0
DWIDTH 20 0
BBX 14 23 3 0
BITMAP
E000
6000
7000
3000
3800
1800
1C00
0C00
0E00
0600
0700
0300
0380
0180
01C0
00C0
00E0
0060
0070
0030
0038
0018
001C
ENDCHAR

STARTCHAR bracketright
ENCODING 93
SWIDTH 333 0
DWIDTH 11 0
BBX 11 27 0 -3
BITMAP
0FE0
00E0
00E0
00C0
00C0
01C0
01C0
01C0
0180
0180
0180
0380
0380
0380
0300
0300
0300
0700
0700
0700
0700
0600
0600
0600
0E00
0E00
FE00
ENDCHAR

STARTCHAR asciicircum
ENCODING 94
SWIDTH 606 0
DWIDTH 20 0
BBX 15 14 3 9
BITMAP
0380
0380
06C0
06E0
0C60
1C70
1830
3838
3018
701C
600C
C006
C006
8002
ENDCHAR

STARTCHAR underscore
ENCODING 95
SWIDTH 500 0
DWIDTH 16 0
BBX 16 2 0 -6
BITMAP
FFFF
FFFF
ENDCHAR

STARTCHAR quoteleft
ENCODING 96
SWIDTH 278 0
DWIDTH 9 0
BBX 6 8 2 15
BITMAP
0C
18
38
30
70
60
E0
E0
ENDCHAR

STARTCHAR a
ENCODING 97
SWIDTH 444 0
DWIDTH 15 0
BBX 14 16 0 0
BITMAP
01E8
0FF8
0C38
1838
3030
3070
7070
6070
60E0
E1E0
E3E0
C7E0
CEC8
DCDC
F8F0
E0C0
ENDCHAR

STARTCHAR b
ENCODING 98
SWIDTH 463 0
DWIDTH 14 0
BBX 13 24 0 0
BITMAP
0C00
7C00
1C00
1C00
1C00
1800
3800
3800
3870
31F8
3338
3618
7C18
7818
7018
7038
6030
E030
E060
C060
C0C0
E180
F700
7E00
ENDCHAR

STARTCHAR c
ENCODING 99
SWIDTH 407 0
DWIDTH 13 0
BBX 12 16 0 0
BITMAP
01F0
0FF0
1C20
3020
3020
6000
6000
E000
C000
C000
C000
C000
E0E0
E1C0
7F00
3C00
ENDCHAR

STARTCHAR d
ENCODING 100
SWIDTH 500 0
DWIDTH 15 0
BBX 15 24 0 0
BITMAP
0006
003E
000E
000C
000C
001C
001C
001C
01F8
0FF8
1C38
1838
3038
7030
6030
6070
60F0
E1E0
C1E0
C360
C764
ECFC
F8F8
60E0
ENDCHAR

STARTCHAR e
ENCODING 101
SWIDTH 389 0
DWIDTH 12 0
BBX 11 16 0 0
BITMAP
07C0
0EE0
1860
3060
70E0
61C0
6700
FE00
F000
C000
C000
C000
C0C0
E3C0
7F00
3800
ENDCHAR

STARTCHAR f
ENCODING 102
SWIDTH 278 0
DWIDTH 8 0
BBX 14 33 -3 -9
BITMAP
001C
007C
006C
00C0
0180
0380
0380
0300
0300
07F0
1FF0
0700
0700
0600
0600
0600
0600
0600
0600
0E00
0C00
0C00
0C00
0C00
0C00
0800
1800
1800
1800
1000
3000
E000
C000
ENDCHAR

STARTCHAR g
ENCODING 103
SWIDTH 500 0
DWIDTH 15 0
BBX 17 25 -2 -9
BITMAP
01F800
039C00
0E0F80
0C0E00
1C0E00
180E00
180C00
180C00
1C1800
1E7000
07E000
018000
030000
038000
03C000
0FE000
3CF000
707800
E03C00
C01C00
C00C00
C00C00
E01800
70F000
1FC000
ENDCHAR

STARTCHAR h
ENCODING 104
SWIDTH 500 0
DWIDTH 18 0
BBX 15 24 1 0
BITMAP
0600
3E00
0E00
0E00
0E00
0E00
0C00
0C00
1C1C
1C7C
18FC
198C
1B1C
1E1C
3E18
3C18
3838
3038
7030
7030
6072
607E
E07C
E070
ENDCHAR

STARTCHAR i
ENCODING 105
SWIDTH 278 0
DWIDTH 9 0
BBX 7 24 1 0
BITMAP
06
0E
0E
0C
00
00
00
00
18
7C
DC
98
18
38
30
30
30
70
70
60
64
FC
F8
E0
ENDCHAR

STARTCHAR j
ENCODING 106
SWIDTH 278 0
DWIDTH 8 0
BBX 11 33 -3 -9
BITMAP
0040
00E0
00E0
0040
0000
0000
0000
0000
01C0
07C0
0D80
0980
0180
0380
0380
0300
0300
0300
0700
0700
0600
0600
0600
0E00
0C00
0C00
0C00
0C00
1800
1800
1000
F000
E000
ENDCHAR

STARTCHAR k
ENCODING 107
SWIDTH 444 0
DWIDTH 14 0
BBX 14 24 0 0
BITMAP
0600
3E00
0E00
0C00
0C00
1C00
1C00
1C00
181C
187C
18E0
3980
3300
3600
3E00
7F00
7F00
7380
6380
6180
E1C0
C1D8
C0F8
C0E0
ENDCHAR

STARTCHAR l
ENCODING 108
SWIDTH 278 0
DWIDTH 9 0
BBX 7 24 1 0
BITMAP
06
3E
0E
0E
0C
1C
1C
1C
1C
18
38
38
38
38
30
70
70
70
70
60
E4
FC
F8
E0
ENDCHAR

STARTCHAR m
ENCODING 109
SWIDTH 778 0
DWIDTH 26 0
BBX 23 16 1 0
BITMAP
1C1C0E
7C7C3E
FDDCEE
9B9D8C
1B1B1C
1E1E1C
1C1C1C
3C3C18
383818
303038
303038
703030
707032
60707E
60607C
E06070
ENDCHAR

STARTCHAR n
ENCODING 110
SWIDTH 556 0
DWIDTH 19 0
BBX 16 16 1 0
BITMAP
1C0E
7C3E
FCEE
99CE
1B8C
1F0C
1E1C
3C1C
3818
3818
3038
7038
7032
6037
603E
E030
ENDCHAR

STARTCHAR o
ENCODING 111
SWIDTH 444 0
DWIDTH 15 0
BBX 14 16 0 0
BITMAP
03F0
0E78
1838
381C
301C
701C
601C
6018
E018
E038
E038
E030
E060
70E0
79C0
3F00
ENDCHAR

STARTCHAR p
ENCODING 112
SWIDTH 500 0
DWIDTH 16 0
BBX 15 25 0 -9
BITMAP
1C3C
7CFC
FDCE
9F8E
1F0E
1E0E
1C0C
1C0C
181C
3818
3818
3038
3030
3060
3DC0
7F00
7000
6000
6000
6000
E000
E000
E000
C000
C000
ENDCHAR

STARTCHAR q
ENCODING 113
SWIDTH 463 0
DWIDTH 14 0
BBX 13 25 0 -9
BITMAP
03C8
0FF8
1C30
3030
3030
7030
6070
6060
E0E0
E1E0
C3E0
C7E0
CEE0
DCC0
F0C0
E0C0
01C0
01C0
01C0
0180
0180
0180
0380
0380
0380
ENDCHAR

STARTCHAR r
ENCODING 114
SWIDTH 389 0
DWIDTH 12 0
BBX 12 16 0 0
BITMAP
1C70
7CF0
FCF0
9B80
1B00
1E00
1E00
3C00
3800
3800
3000
3000
7000
7000
6000
E000
ENDCHAR

STARTCHAR s
ENCODING 115
SWIDTH 389 0
DWIDTH 11 0
BBX 10 16 0 0
BITMAP
0FC0
1DC0
3040
6040
6000
6000
7C00
3F80
1FC0
01C0
00C0
80C0
8080
8180
E700
FE00
ENDCHAR

STARTCHAR t
ENCODING 116
SWIDTH 333 0
DWIDTH 10 0
BBX 8 21 1 0
BITMAP
04
1C
1C
1C
18
18
3F
FF
38
30
30
30
70
70
60
60
60
E6
FE
F8
E0
ENDCHAR

STARTCHAR u
ENCODING 117
SWIDTH 556 0
DWIDTH 17 0
BBX 16 16 0 0
BITMAP
1C06
7C06
FC06
9C0E
1C0E
180C
181C
383C
383C
387C
30D8
31D8
73B9
773F
7C3E
7038
ENDCHAR

STARTCHAR v
ENCODING 118
SWIDTH 500 0
DWIDTH 16 0
BBX 15 16 0 0
BITMAP
7F8C
7FBE
C33E
8606
0C06
0C06
1804
180C
380C
3018
3018
3030
3860
38E0
1FC0
0E00
ENDCHAR

STARTCHAR w
ENCODING 119
SWIDTH 722 0
DWIDTH 23 0
BBX 22 16 0 0
BITMAP
7F0E38
7F0C7C
C71C1C
861C0C
0C180C
08180C
18380C
183818
303018
307010
30F030
30F060
31B8E0
3BB9C0
3F3F80
1C1E00
ENDCHAR

STARTCHAR x
ENCODING 120
SWIDTH 500 0
DWIDTH 17 0
BBX 16 16 0 0
BITMAP
1E07
3F0F
771B
2330
03E0
03E0
01C0
0180
0380
03C0
07C0
0FC0
0CC4
F8EE
F0F8
C060
ENDCHAR

STARTCHAR y
ENCODING 121
SWIDTH 500 0
DWIDTH 17 0
BBX 16 25 0 -9
BITMAP
0C03
3C07
7C06
CC0E
0C0E
0C0C
0C1C
0C1C
1C38
1C78
1CF8
1CF0
1DB0
1F30
1E60
0C60
0060
00C0
00C0
0080
0180
C300
C700
EE00
7C00
ENDCHAR

STARTCHAR z
ENCODING 122
SWIDTH 444 0
DWIDTH 16 0
BBX 15 16 0 0
BITMAP
3E06
3FFC
77F8
6030
0070
00E0
01C0
0380
0700
0E00
1C00
1804
300C
7FC8
FFF8
81F8
ENDCHAR

STARTCHAR braceleft
ENCODING 123
SWIDTH 333 0
DWIDTH 11 0
BBX 9 30 1 -5
BITMAP
0100
0380
0600
0E00
0C00
0C00
1C00
1C00
1C00
1800
1800
1800
3800
3000
E000
E000
7000
7000
7000
7000
7000
6000
6000
6000
E000
E000
E000
6000
7000
3000
ENDCHAR

STARTCHAR bar
ENCODING 124
SWIDTH 606 0
DWIDTH 20 0
BBX 2 24 9 0
BITMAP
C0
C0
C0
C0
C0
C0
C0
C0
C0
C0
C0
C0
C0
C0
C0
C0
C0
C0
C0
C0
C0
C0
C0
C0
ENDCHAR

STARTCHAR braceright
ENCODING 125
SWIDTH 333 0
DWIDTH 11 0
BBX 9 30 1 -5
BITMAP
0600
0700
0380
0380
0380
0380
0380
0300
0300
0300
0700
0700
0700
0700
0380
0380
0600
0E00
0E00
0C00
0C00
1C00
1C00
1C00
1C00
1800
3800
3000
F000
4000
ENDCHAR

STARTCHAR asciitilde
ENCODING 126
SWIDTH 606 0
DWIDTH 19 0
BBX 17 4 1 6
BITMAP
1F0180
3FC300
61FE00
C07C00
ENDCHAR

STARTCHAR exclamdown
ENCODING 161
SWIDTH 333 0
DWIDTH 11 0
BBX 8 23 1 -7
BITMAP
02
07
07
02
00
00
0C
0C
0C
18
18
18
18
38
30
30
30
70
70
E0
E0
E0
E0
ENDCHAR

STARTCHAR cent
ENCODING 162
SWIDTH 500 0
DWIDTH 17 0
BBX 11 21 3 -3
BITMAP
00C0
0080
01E0
0FE0
1D60
3320
7220
6200
6600
E400
C400
CC00
C800
D800
F8C0
F1C0
7F00
3C00
2000
6000
4000
ENDCHAR

STARTCHAR sterling
ENCODING 163
SWIDTH 500 0
DWIDTH 17 0
BBX 16 23 0 0
BITMAP
001E
007F
01C6
0182
0302
0700
0600
0E00
0E00
0E00
0E00
7FF0
0E00
0E00
0C00
0C00
0C00
0802
1803
1002
3002
7FFE
C0FC
ENDCHAR

STARTCHAR currency
ENCODING 164
SWIDTH 500 0
DWIDTH 17 0
BBX 15 15 1 4
BITMAP
C7C4
FFFC
783C
701C
600C
C006
C006
C006
C006
C006
600C
701C
783C
FFFE
07C0
ENDCHAR

STARTCHAR yen
ENCODING 165
SWIDTH 500 0
DWIDTH 17 0
BBX 18 23 0 0
BITMAP
700000
F800C0
B801C0
1C0300
0C0600
0E0C00
0E1800
061800
063000
033000
1F7E00
036000
03C000
03C000
3FFC00
038000
038000
038000
038000
030000
030000
070000
1FE000
ENDCHAR

STARTCHAR brokenbar
ENCODING 166
SWIDTH 606 0
DWIDTH 20 0
BBX 2 25 9 0
BITMAP
C0
C0
C0
C0
C0
C0
C0
C0
C0
C0
00
00
00
00
00
C0
C0
C0
C0
C0
C0
C0
C0
C0
C0
ENDCHAR

STARTCHAR section
ENCODING 167
SWIDTH 500 0
DWIDTH 17 0
BBX 15 31 1 -8
BITMAP
01FC
073E
060C
0C04
0804
1800
1800
1C00
0F00
0F80
1BE0
31F0
3078
603C
601C
700C
780C
3C18
1F18
0FF0
03E0
00F0
0070
0030
4030
4030
C020
C060
E1C0
FF80
1C00
ENDCHAR

STARTCHAR dieresis
ENCODING 168
SWIDTH 333 0
DWIDTH 11 0
BBX 10 3 0 17
BITMAP
6180
F3C0
6180
ENDCHAR

STARTCHAR copyright
ENCODING 169
SWIDTH 747 0
DWIDTH 25 0
BBX 23 23 1 0
BITMAP
01FF00
07C7C0
0E00E0
180030
300018
607F0C
61C38C
C38186
C30086
870002
860002
860002
860002
870002
C30006
C38186
61C78C
607E0C
300018
180030
0E00E0
07C7C0
01FF00
ENDCHAR

STARTCHAR ordfeminine
ENCODING 170
SWIDTH 333 0
DWIDTH 11 0
BBX 9 13 1 10
BITMAP
1F80
3980
2100
6300
4700
4E00
DE00
F680
E700
0000
0000
0000
FF00
ENDCHAR

STARTCHAR guillemotleft
ENCODING 171
SWIDTH 500 0
DWIDTH 17 0
BBX 13 12 2 2
BITMAP
0618
0C30
1860
30C0
6180
E380
E380
6180
30C0
1860
0C30
0410
ENDCHAR

STARTCHAR logicalnot
ENCODING 172
SWIDTH 606 0
DWIDTH 20 0
BBX 17 9 2 4
BITMAP
FFFF80
FFFF80
000180
000180
000180
000180
000180
000180
000180
ENDCHAR

STARTCHAR hyphen
ENCODING 173
SWIDTH 333 0
DWIDTH 11 0
BBX 10 2 0 7
BITMAP
7FC0
FF80
ENDCHAR

STARTCHAR registered
ENCODING 174
SWIDTH 747 0
DWIDTH 25 0
BBX 23 23 1 0
BITMAP
01FF00
0783C0
0C00E0
180030
33FC18
61860C
41830C
C18306
C18306
818306
818E02
81FC02
819C02
818C02
C18606
C18706
41830C
63E1CC
300018
180030
0C00E0
0787C0
01FF00
ENDCHAR

STARTCHAR macron
ENCODING 175
SWIDTH 333 0
DWIDTH 11 0
BBX 9 2 1 17
BITMAP
FF80
FF80
ENDCHAR

STARTCHAR degree
ENCODING 176
SWIDTH 400 0
DWIDTH 13 0
BBX 9 10 4 13
BITMAP
3E00
7700
C180
8180
8080
8080
8180
C180
6700
3E00
ENDCHAR

STARTCHAR plusminus
ENCODING 177
SWIDTH 606 0
DWIDTH 20 0
BBX 16 17 2 0
BITMAP
0180
0180
0180
0180
0180
0180
FFFF
FFFF
0180
0180
0180
0180
0180
0000
0000
FFFF
FFFF
ENDCHAR

STARTCHAR twosuperior
ENCODING 178
SWIDTH 300 0
DWIDTH 10 0
BBX 9 14 1 9
BITMAP
1F00
3380
6180
0180
0180
0380
0300
0600
0C00
1C00
3800
7000
6080
FF80
ENDCHAR

STARTCHAR threesuperior
ENCODING 179
SWIDTH 300 0
DWIDTH 10 0
BBX 9 14 1 9
BITMAP
1F00
3380
2180
0180
0300
0600
1E00
0300
0180
0180
8180
8300
8600
FC00
ENDCHAR

STARTCHAR acute
ENCODING 180
SWIDTH 333 0
DWIDTH 11 0
BBX 6 5 3 17
BITMAP
0C
1C
38
60
C0
ENDCHAR

STARTCHAR mu
ENCODING 181
SWIDTH 556 0
DWIDTH 18 0
BBX 16 23 0 -7
BITMAP
0C03
3C07
7C06
4C06
0C0E
1C0E
1C1C
183C
187C
187C
38F8
39D8
33B9
3F3F
3C3E
7038
6000
6000
6000
6000
E000
E000
C000
ENDCHAR

STARTCHAR paragraph
ENCODING 182
SWIDTH 500 0
DWIDTH 17 0
BBX 19 31 0 -8
BITMAP
1FFFE0
3C7380
787300
706300
F06700
F06700
F0E700
F0E600
70E600
70C600
78CE00
38CE00
1DCE00
0FCC00
07CC00
018C00
019C00
019C00
039C00
039800
031800
033800
033800
033800
073800
073000
063000
067000
067000
0FF000
3FFE00
ENDCHAR

STARTCHAR periodcentered
ENCODING 183
SWIDTH 250 0
DWIDTH 8 0
BBX 3 4 2 7
BITMAP
40
E0
E0
40
ENDCHAR

STARTCHAR cedilla
ENCODING 184
SWIDTH 333 0
DWIDTH 11 0
BBX 6 7 2 -7
BITMAP
18
30
78
0C
0C
1C
F8
ENDCHAR

STARTCHAR onesuperior
ENCODING 185
SWIDTH 300 0
DWIDTH 10 0
BBX 8 14 2 9
BITMAP
0C
7C
CC
0C
0C
0C
0C
1C
1C
18
18
18
18
FF
ENDCHAR

STARTCHAR ordmasculine
ENCODING 186
SWIDTH 333 0
DWIDTH 11 0
BBX 9 13 1 10
BITMAP
0F00
1980
3180
2180
6180
6180
6100
6300
6600
3C00
0000
0000
FE00
ENDCHAR

STARTCHAR guillemotright
ENCODING 187
SWIDTH 500 0
DWIDTH 17 0
BBX 13 12 2 2
BITMAP
4100
6180
30C0
1860
0C30
0E38
0E38
0C30
1860
30C0
6180
C300
ENDCHAR

STARTCHAR onequarter
ENCODING 188
SWIDTH 750 0
DWIDTH 25 0
BBX 23 23 1 0
BITMAP
060030
3E0030
660060
0600C0
0C00C0
0C0180
0C0300
0C0300
0C0600
180C1C
180C38
181878
1830F8
FF31D8
006198
00C330
00C630
018C30
030FFE
030030
060060
0C0060
0C03FC
ENDCHAR

STARTCHAR onehalf
ENCODING 189
SWIDTH 750 0
DWIDTH 25 0
BBX 23 23 1 0
BITMAP
0E0030
3E0030
660060
060040
0C00C0
0C0180
0C0100
0C0300
0C0600
18047C
180CCE
181986
181006
FF3006
00600E
00400C
00C018
018030
010070
0300E0
0600C0
040182
0C03FE
ENDCHAR

STARTCHAR threequarters
ENCODING 190
SWIDTH 750 0
DWIDTH 25 0
BBX 23 23 1 0
BITMAP
1F0010
338030
218060
018040
0300C0
060180
1E0100
030300
018600
01841C
818C3C
831878
8610F8
FC31D8
006198
004310
00C630
018E30
010FFE
030030
060030
040060
0C03FC
ENDCHAR

STARTCHAR questiondown
ENCODING 191
SWIDTH 500 0
DWIDTH 16 0
BBX 11 24 1 -8
BITMAP
0040
00E0
00E0
0040
0000
0000
0180
0180
00C0
00C0
0180
0380
0700
0E00
1C00
3800
7000
7000
E000
E020
F060
78C0
7FC0
1F80
ENDCHAR

STARTCHAR Agrave
ENCODING 192
SWIDTH 722 0
DWIDTH 24 0
BBX 23 25 -1 0
BITMAP
001800
001C00
000E00
000300
000180
000000
000300
000700
000F00
000D80
001980
003180
0030C0
0060C0
00C0C0
00C0C0
018060
03FFE0
030060
060060
0C0030
0C0030
180030
380078
FE01FE
ENDCHAR

STARTCHAR Aacute
ENCODING 193
SWIDTH 722 0
DWIDTH 24 0
BBX 23 25 -1 0
BITMAP
0000C0
0001C0
000380
000600
000C00
000000
000300
000700
000F00
000D80
001980
003180
0030C0
0060C0
00C0C0
00C0C0
018060
03FFE0
030060
060060
0C0030
0C0030
180030
380078
FE01FE
ENDCHAR

STARTCHAR Acircumflex
ENCODING 194
SWIDTH 722 0
DWIDTH 24 0
BBX 23 25 -1 0
BITMAP
000180
000380
000680
000C40
001840
000000
000300
000700
000F00
000D80
001980
003180
0030C0
0060C0
00C0C0
00C0C0
018060
03FFE0
030060
060060
0C0030
0C0030
180030
380078
FE01FE
ENDCHAR

STARTCHAR Atilde
ENCODING 195
SWIDTH 722 0
DWIDTH 24 0
BBX 23 23 -1 0
BITMAP
000E30
001FE0
0031C0
000000
000300
000700
000F00
000D80
001980
003180
0030C0
0060C0
00C0C0
00C0C0
018060
03FFE0
030060
060060
0C0030
0C0030
180030
380078
FE01FE
ENDCHAR

STARTCHAR Adieresis
ENCODING 196
SWIDTH 722 0
DWIDTH 24 0
BBX 23 23 -1 0
BITMAP
001860
003CF0
001860
000000
000300
000700
000F00
000D80
001980
003180
0030C0
0060C0
00C0C0
00C0C0
018060
03FFE0
030060
060060
0C0030
0C0030
180030
380078
FE01FE
ENDCHAR

STARTCHAR Aring
ENCODING 197
SWIDTH 722 0
DWIDTH 24 0
BBX 23 25 -1 0
BITMAP
000380
000440
000440
000440
000380
000000
000300
000700
000F00
000D80
001980
003180
0030C0
0060C0
00C0C0
00C0C0
018060
03FFE0
030060
060060
0C0030
0C0030
180030
380078
FE01FE
ENDCHAR

STARTCHAR AE
ENCODING 198
SWIDTH 941 0
DWIDTH 31 0
BBX 30 23 0 0
BITMAP
001FFFFC
0001B81C
0003380C
00033808
00063008
000C7000
000C7000
00187000
00307000
00307000
00606020
00E0FFE0
00C0E000
01FFE000
0380E000
0300C000
0600C000
0E01C000
0C01C008
1801C018
3801C018
3801C070
FE07FFF0
ENDCHAR

STARTCHAR Ccedilla
ENCODING 199
SWIDTH 667 0
DWIDTH 22 0
BBX 21 30 0 -7
BITMAP
001FC0
00FFF8
038078
060018
1C0010
180010
380000
700000
700000
700000
E00000
E00000
E00000
E00000
E00000
E00000
F00000
700000
780000
3C0070
1F01E0
0FFF80
01F800
003000
006000
00F000
001800
001800
003800
01F000
ENDCHAR

STARTCHAR Egrave
ENCODING 200
SWIDTH 611 0
DWIDTH 19 0
BBX 19 25 0 0
BITMAP
00C000
00E000
007000
001800
000C00
000000
1FFFE0
0780E0
038040
038040
038040
070000
070000
070000
070300
07FF00
0E0000
0E0000
0E0000
0E0000
1C0000
1C0080
1C0080
3C0380
FFFF80
ENDCHAR

STARTCHAR Eacute
ENCODING 201
SWIDTH 611 0
DWIDTH 19 0
BBX 19 25 0 0
BITMAP
000600
000E00
001C00
003000
006000
000000
1FFFE0
0780E0
038040
038040
038040
070000
070000
070000
070300
07FF00
0E0000
0E0000
0E0000
0E0000
1C0000
1C0080
1C0080
3C0380
FFFF80
ENDCHAR

STARTCHAR Ecircumflex
ENCODING 202
SWIDTH 611 0
DWIDTH 19 0
BBX 19 25 0 0
BITMAP
000600
000E00
001A00
003100
006100
000000
1FFFE0
0780E0
038040
038040
038040
070000
070000
070000
070300
07FF00
0E0000
0E0000
0E0000
0E0000
1C0000
1C0080
1C0080
3C0380
FFFF80
ENDCHAR

STARTCHAR Edieresis
ENCODING 203
SWIDTH 611 0
DWIDTH 19 0
BBX 19 23 0 0
BITMAP
00C300
01E780
00C300
000000
1FFFE0
0780E0
038040
038040
038040
070000
070000
070000
070300
07FF00
0E0000
0E0000
0E0000
0E0000
1C0000
1C0080
1C0080
3C0380
FFFF80
ENDCHAR

STARTCHAR Igrave
ENCODING 204
SWIDTH 333 0
DWIDTH 13 0
BBX 12 25 0 0
BITMAP
0600
0700
0380
00C0
0060
0000
1FF0
07C0
0380
0380
0380
0700
0700
0700
0700
0700
0E00
0E00
0E00
0E00
0E00
1C00
1C00
3E00
FF80
ENDCHAR

STARTCHAR Iacute
ENCODING 205
SWIDTH 333 0
DWIDTH 13 0
BBX 12 25 0 0
BITMAP
0030
0070
00E0
0180
0300
0000
1FF0
07C0
0380
0380
0380
0700
0700
0700
0700
0700
0E00
0E00
0E00
0E00
0E00
1C00
1C00
3E00
FF80
ENDCHAR

STARTCHAR Icircumflex
ENCODING 206
SWIDTH 333 0
DWIDTH 13 0
BBX 12 25 0 0
BITMAP
00C0
01C0
0340
0620
0C20
0000
1FF0
07C0
0380
0380
0380
0700
0700
0700
0700
0700
0E00
0E00
0E00
0E00
0E00
1C00
1C00
3E00
FF80
ENDCHAR

STARTCHAR Idieresis
ENCODING 207
SWIDTH 333 0
DWIDTH 13 0
BBX 13 23 0 0
BITMAP
0C30
1E78
0C30
0000
1FF0
07C0
0380
0380
0380
0700
0700
0700
0700
0700
0E00
0E00
0E00
0E00
0E00
1C00
1C00
3E00
FF80
ENDCHAR

STARTCHAR Eth
ENCODING 208
SWIDTH 778 0
DWIDTH 26 0
BBX 25 23 0 0
BITMAP
1FFFF000
0780FC00
03801E00
03800F00
03800700
03800780
03800380
03000380
07000380
07000380
07000380
7FF00380
07000780
0E000700
0E000700
0E000E00
0E000E00
0E001C00
0E003800
1C003000
1C00E000
3FFFC000
FFFE0000
ENDCHAR

STARTCHAR Ntilde
ENCODING 209
SWIDTH 778 0
DWIDTH 26 0
BBX 27 23 -1 0
BITMAP
00071800
000FF000
0018E000
00000000
1F801FE0
07C00780
03E00300
03F00300
03700300
06380600
063C0600
061E0600
060E0600
06070600
0C078C00
0C03CC00
0C01CC00
0C00EC00
1800F800
18007800
18003800
3C003800
FF001800
ENDCHAR

STARTCHAR Ograve
ENCODING 210
SWIDTH 778 0
DWIDTH 24 0
BBX 23 25 0 0
BITMAP
003000
003800
001C00
000600
000300
000000
00FF80
0380E0
0E0038
1C001C
38001C
38000E
70000E
70000E
70000E
E0000E
E0001C
E0001C
E0001C
E00038
700038
700070
3800E0
0E0380
03FE00
ENDCHAR

STARTCHAR Oacute
ENCODING 211
SWIDTH 778 0
DWIDTH 24 0
BBX 23 25 0 0
BITMAP
000300
000700
000E00
001800
003000
000000
00FF80
0380E0
0E0038
1C001C
38001C
38000E
70000E
70000E
70000E
E0000E
E0001C
E0001C
E0001C
E00038
700038
700070
3800E0
0E0380
03FE00
ENDCHAR

STARTCHAR Ocircumflex
ENCODING 212
SWIDTH 778 0
DWIDTH 24 0
BBX 23 25 0 0
BITMAP
000300
000700
000D00
001880
003080
000000
00FF80
0380E0
0E0038
1C001C
38001C
38000E
70000E
70000E
70000E
E0000E
E0001C
E0001C
E0001C
E00038
700038
700070
3800E0
0E0380
03FE00
ENDCHAR

STARTCHAR Otilde
ENCODING 213
SWIDTH 778 0
DWIDTH 24 0
BBX 23 23 0 0
BITMAP
0038C0
007F80
00C700
000000
00FF80
0380E0
0E0038
1C001C
38001C
38000E
70000E
70000E
70000E
E0000E
E0001C
E0001C
E0001C
E00038
700038
700070
3800E0
0E0380
03FE00
ENDCHAR

STARTCHAR Odieresis
ENCODING 214
SWIDTH 778 0
DWIDTH 24 0
BBX 23 23 0 0
BITMAP
006180
00F3C0
006180
000000
00FF80
0380E0
0E0038
1C001C
38001C
38000E
70000E
70000E
70000E
E0000E
E0001C
E0001C
E0001C
E00038
700038
700070
3800E0
0E0380
03FE00
ENDCHAR

STARTCHAR multiply
ENCODING 215
SWIDTH 606 0
DWIDTH 20 0
BBX 15 14 3 1
BITMAP
E00E
701C
3838
1C70
0EE0
07C0
0380
07C0
0EE0
1C70
3838
701C
E00E
4004
ENDCHAR

STARTCHAR Oslash
ENCODING 216
SWIDTH 778 0
DWIDTH 24 0
BBX 23 24 0 -1
BITMAP
007FC6
01C3FC
070078
0E003C
1C007C
3800DE
38018E
70030E
70060E
700C0E
E0180E
E0300E
E0600E
E0C01C
E1801C
E30018
E60038
F60030
7C0070
7800E0
3C01C0
7F8700
C7FC00
800000
ENDCHAR

STARTCHAR Ugrave
ENCODING 217
SWIDTH 778 0
DWIDTH 26 0
BBX 24 25 1 0
BITMAP
018000
01C000
00E000
003000
001800
000000
FC01FF
3C007C
1C0038
1C0038
380070
380070
380070
380070
7000E0
7000E0
7000E0
7000E0
E001E0
E003C0
E007C0
E00DC0
7019C0
7FF1E0
1FC1F8
ENDCHAR

STARTCHAR Uacute
ENCODING 218
SWIDTH 778 0
DWIDTH 26 0
BBX 24 25 1 0
BITMAP
000300
000700
000E00
001800
003000
000000
FC01FF
3C007C
1C0038
1C0038
380070
380070
380070
380070
7000E0
7000E0
7000E0
7000E0
E001E0
E003C0
E007C0
E00DC0
7019C0
7FF1E0
1FC1F8
ENDCHAR

STARTCHAR Ucircumflex
ENCODING 219
SWIDTH 778 0
DWIDTH 26 0
BBX 24 25 1 0
BITMAP
000C00
001C00
003400
006200
00C200
000000
FC01FF
3C007C
1C0038
1C0038
380070
380070
380070
380070
7000E0
7000E0
7000E0
7000E0
E001E0
E003C0
E007C0
E00DC0
7019C0
7FF1E0
1FC1F8
ENDCHAR

STARTCHAR Udieresis
ENCODING 220
SWIDTH 778 0
DWIDTH 26 0
BBX 24 23 1 0
BITMAP
00C300
01E780
00C300
000000
FC01FF
3C007C
1C0038
1C0038
380070
380070
380070
380070
7000E0
7000E0
7000E0
7000E0
E001E0
E003C0
E007C0
E00DC0
7019C0
7FF1E0
1FC1F8
ENDCHAR

STARTCHAR Yacute
ENCODING 221
SWIDTH 667 0
DWIDTH 21 0
BBX 20 25 1 0
BITMAP
000600
000E00
001C00
003000
006000
380000
7C0070
DE00F0
0E0180
0E0300
070600
070C00
038C00
039800
03B000
01E000
01E000
01C000
01C000
01C000
038000
038000
038000
038000
1FF000
ENDCHAR

STARTCHAR Thorn
ENCODING 222
SWIDTH 611 0
DWIDTH 20 0
BBX 19 23 0 0
BITMAP
0FF800
03E000
01C000
01C000
038000
03FF00
0383C0
0381C0
0380E0
0700E0
0700E0
0700E0
0700C0
0701C0
070180
0E0380
0F8F00
0EFC00
0E0000
1C0000
1C0000
3E0000
FF8000
ENDCHAR

STARTCHAR germandbls
ENCODING 223
SWIDTH 500 0
DWIDTH 16 0
BBX 18 34 -3 -9
BITMAP
000700
001F80
0031C0
0061C0
00C0C0
01C0C0
01C0C0
01C180
018180
018300
018300
078600
0F8400
030C00
030C00
030E00
030700
070780
060380
060380
060180
064300
0E4700
0C7E00
0C3800
0C0000
0C0000
080000
180000
100000
100000
300000
E00000
C00000
ENDCHAR

STARTCHAR agrave
ENCODING 224
SWIDTH 444 0
DWIDTH 15 0
BBX 14 22 0 0
BITMAP
0C00
0E00
0700
0180
00C0
0000
01E8
0FF8
0C38
1838
3030
3070
7070
6070
60E0
E1E0
E3E0
C7E0
CEC8
DCDC
F8F0
E0C0
ENDCHAR

STARTCHAR aacute
ENCODING 225
SWIDTH 444 0
DWIDTH 15 0
BBX 14 22 0 0
BITMAP
0018
0038
0070
00C0
0180
0000
01E8
0FF8
0C38
1838
3030
3070
7070
6070
60E0
E1E0
E3E0
C7E0
CEC8
DCDC
F8F0
E0C0
ENDCHAR

STARTCHAR acircumflex
ENCODING 226
SWIDTH 444 0
DWIDTH 15 0
BBX 14 22 0 0
BITMAP
0060
00E0
01A0
0310
0610
0000
01E8
0FF8
0C38
1838
3030
3070
7070
6070
60E0
E1E0
E3E0
C7E0
CEC8
DCDC
F8F0
E0C0
ENDCHAR

STARTCHAR atilde
ENCODING 227
SWIDTH 444 0
DWIDTH 15 0
BBX 14 20 0 0
BITMAP
0E30
1FE0
31C0
0000
01E8
0FF8
0C38
1838
3030
3070
7070
6070
60E0
E1E0
E3E0
C7E0
CEC8
DCDC
F8F0
E0C0
ENDCHAR

STARTCHAR adieresis
ENCODING 228
SWIDTH 444 0
DWIDTH 15 0
BBX 14 20 0 0
BITMAP
0618
0F3C
0618
0000
01E8
0FF8
0C38
1838
3030
3070
7070
6070
60E0
E1E0
E3E0
C7E0
CEC8
DCDC
F8F0
E0C0
ENDCHAR

STARTCHAR aring
ENCODING 229
SWIDTH 444 0
DWIDTH 15 0
BBX 14 22 0 0
BITMAP
01C0
0220
0220
0220
01C0
0000
01E8
0FF8
0C38
1838
3030
3070
7070
6070
60E0
E1E0
E3E0
C7E0
CEC8
DCDC
F8F0
E0C0
ENDCHAR

STARTCHAR ae
ENCODING 230
SWIDTH 638 0
DWIDTH 22 0
BBX 21 16 0 0
BITMAP
0780E0
1FE7F8
30FE38
207C38
003830
003860
0033C0
0FFF00
783000
607000
E07000
E07000
C1F070
E3F8E0
FF3F80
780E00
ENDCHAR

STARTCHAR ccedilla
ENCODING 231
SWIDTH 407 0
DWIDTH 13 0
BBX 12 23 0 -7
BITMAP
01F0
0FF0
1C20
3020
3020
6000
6000
E000
C000
C000
C000
C000
E0E0
E1C0
7F00
3C00
0300
0600
0F00
0180
0180
0380
1F00
ENDCHAR

STARTCHAR egrave
ENCODING 232
SWIDTH 389 0
DWIDTH 12 0
BBX 11 22 0 0
BITMAP
3000
3800
1C00
0600
0300
0000
07C0
0EE0
1860
3060
70E0
61C0
6700
FE00
F000
C000
C000
C000
C0C0
E3C0
7F00
3800
ENDCHAR

STARTCHAR eacute
ENCODING 233
SWIDTH 389 0
DWIDTH 12 0
BBX 11 22 0 0
BITMAP
00C0
01C0
0380
0600
0C00
0000
07C0
0EE0
1860
3060
70E0
61C0
6700
FE00
F000
C000
C000
C000
C0C0
E3C0
7F00
3800
ENDCHAR

STARTCHAR ecircumflex
ENCODING 234
SWIDTH 389 0
DWIDTH 12 0
BBX 11 22 0 0
BITMAP
00C0
01C0
0340
0620
0C20
0000
07C0
0EE0
1860
3060
70E0
61C0
6700
FE00
F000
C000
C000
C000
C0C0
E3C0
7F00
3800
ENDCHAR

STARTCHAR edieresis
ENCODING 235
SWIDTH 389 0
DWIDTH 12 0
BBX 12 20 0 0
BITMAP
1860
3CF0
1860
0000
07C0
0EE0
1860
3060
70E0
61C0
6700
FE00
F000
C000
C000
C000
C0C0
E3C0
7F00
3800
ENDCHAR

STARTCHAR igrave
ENCODING 236
SWIDTH 278 0
DWIDTH 9 0
BBX 6 22 1 0
BITMAP
C0
E0
70
18
0C
00
18
7C
DC
98
18
38
38
30
30
70
70
60
64
FC
F8
E0
ENDCHAR

STARTCHAR iacute
ENCODING 237
SWIDTH 278 0
DWIDTH 9 0
BBX 8 22 1 0
BITMAP
03
07
0E
18
30
00
18
7C
DC
98
18
38
38
30
30
70
70
60
64
FC
F8
E0
ENDCHAR

STARTCHAR icircumflex
ENCODING 238
SWIDTH 278 0
DWIDTH 9 0
BBX 7 22 1 0
BITMAP
0C
1C
34
62
C2
00
18
7C
DC
98
18
38
38
30
30
70
70
60
64
FC
F8
E0
ENDCHAR

STARTCHAR idieresis
ENCODING 239
SWIDTH 278 0
DWIDTH 9 0
BBX 10 20 0 0
BITMAP
6180
F3C0
6180
0000
0C00
3E00
6E00
4C00
0C00
1C00
1C00
1800
1800
3800
3800
3000
3200
7E00
7C00
7000
ENDCHAR

STARTCHAR eth
ENCODING 240
SWIDTH 444 0
DWIDTH 15 0
BBX 14 24 0 0
BITMAP
1F84
18FC
0070
01F0
0738
0038
0018
001C
07FC
0E7C
183C
381C
301C
701C
601C
6018
E018
E038
E038
E030
E060
60E0
79C0
3F00
ENDCHAR

STARTCHAR ntilde
ENCODING 241
SWIDTH 556 0
DWIDTH 19 0
BBX 16 20 1 0
BITMAP
01C6
03FC
0638
0000
1C0E
7C3E
FCEE
99CE
1B8C
1F0C
1E1C
3C1C
3818
3818
3038
7038
7032
6037
603E
E030
ENDCHAR

STARTCHAR ograve
ENCODING 242
SWIDTH 444 0
DWIDTH 15 0
BBX 14 22 0 0
BITMAP
0C00
0E00
0700
0180
00C0
0000
03F0
0E78
1838
381C
301C
701C
601C
6018
E018
E038
E038
E030
E060
70E0
79C0
3F00
ENDCHAR

STARTCHAR oacute
ENCODING 243
SWIDTH 444 0
DWIDTH 15 0
BBX 14 22 0 0
BITMAP
0030
0070
00E0
0180
0300
0000
03F0
0E78
1838
381C
301C
701C
601C
6018
E018
E038
E038
E030
E060
70E0
79C0
3F00
ENDCHAR

STARTCHAR ocircumflex
ENCODING 244
SWIDTH 444 0
DWIDTH 15 0
BBX 14 22 0 0
BITMAP
0060
00E0
01A0
0310
0610
0000
03F0
0E78
1838
381C
301C
701C
601C
6018
E018
E038
E038
E030
E060
70E0
79C0
3F00
ENDCHAR

STARTCHAR otilde
ENCODING 245
SWIDTH 444 0
DWIDTH 15 0
BBX 14 20 0 0
BITMAP
038C
07F8
0C70
0000
03F0
0E78
1838
381C
301C
701C
601C
6018
E018
E038
E038
E030
E060
70E0
79C0
3F00
ENDCHAR

STARTCHAR odieresis
ENCODING 246
SWIDTH 444 0
DWIDTH 15 0
BBX 14 20 0 0
BITMAP
0C30
1E78
0C30
0000
03F0
0E78
1838
381C
301C
701C
601C
6018
E018
E038
E038
E030
E060
70E0
79C0
3F00
ENDCHAR

STARTCHAR divide
ENCODING 247
SWIDTH 606 0
DWIDTH 20 0
BBX 17 17 2 0
BITMAP
01C000
01C000
01C000
000000
000000
000000
000000
000000
FFFF80
FFFF80
000000
000000
000000
000000
01C000
01C000
01C000
ENDCHAR

STARTCHAR oslash
ENCODING 248
SWIDTH 444 0
DWIDTH 15 0
BBX 16 17 -1 0
BITMAP
0001
03FB
073E
0E1C
1C1E
183E
386E
30CE
30CE
718C
731C
761C
7C18
7838
7870
7CE0
DFC0
ENDCHAR

STARTCHAR ugrave
ENCODING 249
SWIDTH 556 0
DWIDTH 17 0
BBX 16 22 0 0
BITMAP
0600
0700
0380
00C0
0060
0000
1C06
7C06
FC06
9C0E
1C0E
180C
181C
383C
383C
387C
30D8
31D8
73B9
773F
7C3E
7038
ENDCHAR

STARTCHAR uacute
ENCODING 250
SWIDTH 556 0
DWIDTH 17 0
BBX 16 22 0 0
BITMAP
0018
0038
0070
00C0
0180
0000
1C06
7C06
FC06
9C0E
1C0E
180C
181C
383C
383C
387C
30D8
31D8
73B9
773F
7C3E
7038
ENDCHAR

STARTCHAR ucircumflex
ENCODING 251
SWIDTH 556 0
DWIDTH 17 0
BBX 16 22 0 0
BITMAP
0030
0070
00D0
0188
0308
0000
1C06
7C06
FC06
9C0E
1C0E
180C
181C
383C
383C
387C
30D8
31D8
73B9
773F
7C3E
7038
ENDCHAR

STARTCHAR udieresis
ENCODING 252
SWIDTH 556 0
DWIDTH 17 0
BBX 16 20 0 0
BITMAP
030C
079E
030C
0000
1C06
7C06
FC06
9C0E
1C0E
180C
181C
383C
383C
387C
30D8
31D8
73B9
773F
7C3E
7038
ENDCHAR

STARTCHAR yacute
ENCODING 253
SWIDTH 500 0
DWIDTH 17 0
BBX 16 31 0 -9
BITMAP
000C
001C
0038
0060
00C0
0000
0C03
3C07
7C06
CC0E
0C0E
0C0C
0C1C
0C1C
1C38
1C78
1CF8
1CF0
1DB0
1F30
1E60
0C60
0060
00C0
00C0
0080
0180
C300
C700
EE00
7C00
ENDCHAR

STARTCHAR thorn
ENCODING 254
SWIDTH 500 0
DWIDTH 16 0
BBX 16 32 -1 -9
BITMAP
0300
0F00
3F00
3700
0600
0600
0600
060E
0E7E
0CE7
0DC7
0F87
0F07
0E06
1C06
1C0E
180C
180C
1818
3818
3070
3CE0
3F80
3000
7000
7000
6000
6000
6000
E000
E000
E000
ENDCHAR

STARTCHAR ydieresis
ENCODING 255
SWIDTH 500 0
DWIDTH 17 0
BBX 16 29 0 -9
BITMAP
030C
079E
030C
0000
0C03
3C07
7C06
CC0E
0C0E
0C0C
0C1C
0C1C
1C38
1C78
1CF8
1CF0
1DB0
1F30
1E60
0C60
0060
00C0
00C0
0080
0180
C300
C700
EE00
7C00
ENDCHAR
ENDFONT
